<svg xmlns="http://www.w3.org/2000/svg" viewBox="0 0 200 200" width="400" height="400" aria-label="Stacked Books Logo" style="--ring:#cc3600;--book1:#cc3600;--book2:#e08666;--book3:#b8542e;--page:#fef3c7"><style>@media (prefers-color-scheme:dark){:root{--ring:#cc3600;--book1:#cc3600;--book2:#e08666;--book3:#b8542e;--page:#fef3c7}}</style><defs><linearGradient id="book1Gradient" x1="0%" y1="0%" x2="100%" y2="100%"><stop offset="0%" stop-color="var(--book1)"/><stop offset="100%" stop-color="var(--book1)" stop-opacity=".8"/></linearGradient><linearGradient id="book2Gradient" x1="0%" y1="0%" x2="100%" y2="100%"><stop offset="0%" stop-color="var(--book2)"/><stop offset="100%" stop-color="var(--book2)" stop-opacity=".8"/></linearGradient><linearGradient id="book3Gradient" x1="0%" y1="0%" x2="100%" y2="100%"><stop offset="0%" stop-color="var(--book3)"/><stop offset="100%" stop-color="var(--book3)" stop-opacity=".8"/></linearGradient><filter id="shadow" x="-50%" y="-50%" width="200%" height="200%"><feDropShadow dx="0" dy="2" stdDeviation="3" flood-opacity=".2"/></filter></defs><circle cx="100" cy="100" r="75" fill="none" stroke="var(--ring)" stroke-width="8" opacity=".9"/><g filter="url(#shadow)" transform="rotate(-12 525.718 -425.718)"><rect x="-45" y="-28" width="90" height="26" rx="3" fill="url(#book1Gradient)"/><rect x="-45" y="-28" width="6" height="26" rx="2" fill="var(--book1)" opacity=".7"/><path fill="var(--page)" opacity=".6" d="M-39-26h82v2h-82z"/><path fill="var(--page)" opacity=".4" d="M-39-23h82v1h-82z"/><path fill="var(--page)" opacity=".3" d="M-39-21h82v1h-82z"/></g><g filter="url(#shadow)" transform="rotate(-12 521.718 -463.775)"><rect x="-45" y="-2" width="88" height="26" rx="3" fill="url(#book2Gradient)"/><rect x="-45" y="-2" width="6" height="26" rx="2" fill="var(--book2)" opacity=".7"/><path fill="var(--page)" opacity=".6" d="M-39 0h80v2h-80z"/><path fill="var(--page)" opacity=".4" d="M-39 3h80v1h-80z"/><path fill="var(--page)" opacity=".3" d="M-39 5h80v1h-80z"/><rect x="-20" y="8" width="35" height="2" rx="1" fill="#fff" opacity=".3"/><rect x="-20" y="13" width="25" height="2" rx="1" fill="#fff" opacity=".2"/></g><g filter="url(#shadow)" transform="rotate(-12 517.718 -501.833)"><rect x="-45" y="24" width="86" height="26" rx="3" fill="url(#book3Gradient)"/><rect x="-45" y="24" width="6" height="26" rx="2" fill="var(--book3)" opacity=".7"/><path fill="var(--page)" opacity=".6" d="M-39 26h78v2h-78z"/><path fill="var(--page)" opacity=".4" d="M-39 29h78v1h-78z"/><path fill="var(--page)" opacity=".3" d="M-39 31h78v1h-78z"/><rect x="-20" y="34" width="30" height="2" rx="1" fill="#fff" opacity=".3"/><rect x="-20" y="39" width="20" height="2" rx="1" fill="#fff" opacity=".2"/></g></svg>